<svg width="215" height="215" viewBox="0 0 215 215" fill="none" xmlns="http://www.w3.org/2000/svg">
<path d="M166.843 158.01C172.057 158.01 176.3 153.767 176.3 148.552V52.2424C176.3 44.7751 170.225 38.7 162.758 38.7H51.1675C43.7002 38.7 37.625 44.7751 37.625 52.2424V148.552C37.625 153.767 41.8676 158.01 47.0823 158.01H50.0841V171.958H40.3335C38.8376 171.958 37.625 173.171 37.625 174.666C37.625 176.162 38.8376 177.375 40.3335 177.375H173.592C175.087 177.375 176.3 176.162 176.3 174.666C176.3 173.171 175.087 171.958 173.592 171.958H163.841V158.01H166.843ZM43.042 52.2424C43.042 47.762 46.6871 44.1169 51.1675 44.1169H162.758C167.238 44.1169 170.883 47.762 170.883 52.2424V58.2011H43.3139C43.2221 58.2011 43.1314 58.206 43.042 58.2149V52.2424ZM67.4185 171.958H55.5011V147.581H67.4185V171.958ZM97.7536 171.958H85.8362V117.634H97.7536V171.958ZM128.089 171.958H116.171V140.539H128.089V171.958ZM161.132 108.173H143.798C142.302 108.173 141.09 109.386 141.09 110.881V124.559C141.09 126.055 142.302 127.268 143.798 127.268C145.294 127.268 146.507 126.055 146.507 124.559V113.59H158.424V171.958H146.507V142.774C146.507 141.278 145.294 140.065 143.798 140.065C142.302 140.065 141.09 141.278 141.09 142.774V171.958H133.506V137.831C133.506 136.335 132.293 135.122 130.797 135.122H113.463C111.967 135.122 110.754 136.335 110.754 137.831V171.958H103.171V114.926C103.171 113.43 101.958 112.217 100.462 112.217H83.1277C81.6318 112.217 80.4192 113.43 80.4192 114.926V171.958H72.8354V144.873C72.8354 143.377 71.6229 142.165 70.127 142.165H52.7926C51.2967 142.165 50.0841 143.377 50.0841 144.873V152.593H47.0823C44.8542 152.593 43.042 150.78 43.042 148.552V63.6043C43.1314 63.6132 43.2221 63.6181 43.3139 63.6181H170.883V148.552C170.883 150.78 169.07 152.593 166.843 152.593H163.841V110.881C163.841 109.386 162.628 108.173 161.132 108.173Z" fill="#0E334E"/>
<path d="M158.966 48.4504H97.7712C96.2753 48.4504 95.0627 49.6633 95.0627 51.1589C95.0627 52.6546 96.2753 53.8674 97.7712 53.8674H158.966C160.462 53.8674 161.674 52.6546 161.674 51.1589C161.674 49.6633 160.462 48.4504 158.966 48.4504Z" fill="#0E334E"/>
<path d="M67.7082 49.244C67.2045 48.7402 66.5057 48.4504 65.7933 48.4504C65.081 48.4504 64.3822 48.74 63.8784 49.244C63.3746 49.7478 63.0848 50.4466 63.0848 51.1589C63.0848 51.8713 63.3746 52.5701 63.8784 53.0736C64.3822 53.5776 65.081 53.8674 65.7933 53.8674C66.5057 53.8674 67.2045 53.5776 67.7082 53.0736C68.212 52.5701 68.5018 51.8713 68.5018 51.1589C68.5018 50.4466 68.212 49.7478 67.7082 49.244Z" fill="#0E334E"/>
<path d="M56.8743 49.244C56.3705 48.7402 55.6717 48.4504 54.9594 48.4504C54.247 48.4504 53.5482 48.74 53.0444 49.244C52.5407 49.7478 52.2509 50.4466 52.2509 51.1589C52.2509 51.8713 52.5407 52.5701 53.0444 53.0736C53.5482 53.5776 54.247 53.8674 54.9594 53.8674C55.6717 53.8674 56.3705 53.5776 56.8743 53.0736C57.378 52.5701 57.6679 51.8713 57.6679 51.1589C57.6679 50.4466 57.378 49.7478 56.8743 49.244Z" fill="#0E334E"/>
<path d="M78.5422 49.244C78.0384 48.7402 77.3424 48.4504 76.6273 48.4504C75.915 48.4504 75.2162 48.74 74.7124 49.244C74.2086 49.7478 73.9188 50.4466 73.9188 51.1589C73.9188 51.8713 74.2086 52.5701 74.7124 53.0736C75.2162 53.5776 75.915 53.8674 76.6273 53.8674C77.3397 53.8674 78.0384 53.5776 78.5422 53.0736C79.046 52.5701 79.3358 51.8713 79.3358 51.1589C79.3358 50.4466 79.046 49.7478 78.5422 49.244Z" fill="#0E334E"/>
<path d="M145.713 132.297C145.209 131.791 144.51 131.504 143.798 131.504C143.086 131.504 142.387 131.791 141.883 132.297C141.379 132.801 141.09 133.5 141.09 134.212C141.09 134.925 141.379 135.624 141.883 136.127C142.387 136.631 143.086 136.921 143.798 136.921C144.51 136.921 145.209 136.631 145.713 136.127C146.217 135.624 146.507 134.925 146.507 134.212C146.507 133.497 146.217 132.801 145.713 132.297Z" fill="#0E334E"/>
<path d="M152.465 75.519C147.089 75.519 142.715 79.893 142.715 85.2696C142.715 87.4053 143.407 89.3814 144.576 90.9894L126.584 108.981C125.188 108.208 123.584 107.766 121.878 107.766C120.341 107.766 118.887 108.125 117.593 108.761L98.8066 89.9756C99.5794 88.5794 100.021 86.9754 100.021 85.2696C100.021 79.893 95.6469 75.519 90.2703 75.519C84.8936 75.519 80.5197 79.893 80.5197 85.2696C80.5197 87.1488 81.0554 88.9044 81.9801 90.3946L65.9856 106.389C64.5894 105.616 62.9854 105.175 61.2799 105.175C55.9032 105.175 51.5293 109.549 51.5293 114.925C51.5293 120.302 55.9032 124.676 61.2799 124.676C66.6565 124.676 71.0305 120.302 71.0305 114.925C71.0305 113.219 70.589 111.615 69.8162 110.219L86.0017 94.0338C87.2917 94.6646 88.7402 95.0199 90.2703 95.0199C91.9758 95.0199 93.5798 94.5785 94.976 93.8057L113.578 112.407C112.66 113.894 112.128 115.644 112.128 117.516C112.128 122.893 116.502 127.267 121.878 127.267C127.255 127.267 131.629 122.893 131.629 117.516C131.629 115.811 131.188 114.207 130.415 112.81L148.888 94.3371C149.997 94.7765 151.203 95.0202 152.465 95.0202C157.842 95.0202 162.216 90.6463 162.216 85.2696C162.216 79.893 157.842 75.519 152.465 75.519ZM61.2802 119.259C58.8907 119.259 56.9466 117.315 56.9466 114.926C56.9466 112.536 58.8907 110.592 61.2802 110.592C63.6696 110.592 65.6137 112.536 65.6137 114.926C65.6137 117.315 63.6696 119.259 61.2802 119.259ZM90.2705 89.6032C87.8811 89.6032 85.9369 87.6591 85.9369 85.2696C85.9369 82.8802 87.8811 80.936 90.2705 80.936C92.66 80.936 94.6041 82.8802 94.6041 85.2696C94.6041 87.6591 92.66 89.6032 90.2705 89.6032ZM121.879 121.851C119.489 121.851 117.545 119.906 117.545 117.517C117.545 115.128 119.489 113.183 121.879 113.183C124.268 113.183 126.212 115.128 126.212 117.517C126.212 119.906 124.268 121.851 121.879 121.851ZM152.465 89.6032C150.076 89.6032 148.132 87.6591 148.132 85.2696C148.132 82.8802 150.076 80.936 152.465 80.936C154.855 80.936 156.799 82.8802 156.799 85.2696C156.799 87.6591 154.855 89.6032 152.465 89.6032Z" fill="#0E334E"/>
<path d="M77.8002 73.6264C77.2937 73.1226 76.5976 72.8325 75.8853 72.8325C75.1702 72.8325 74.4714 73.1223 73.9676 73.6264C73.4639 74.1299 73.1768 74.8287 73.1768 75.541C73.1768 76.2534 73.4639 76.9521 73.9676 77.4559C74.4741 77.9597 75.1702 78.2495 75.8853 78.2495C76.5976 78.2495 77.2937 77.96 77.8002 77.4559C78.3039 76.9521 78.5938 76.2534 78.5938 75.541C78.5938 74.8287 78.3039 74.1299 77.8002 73.6264Z" fill="#0E334E"/>
<path d="M65.7934 72.8328H52.7926C51.2967 72.8328 50.0841 74.0456 50.0841 75.5413C50.0841 77.0369 51.2967 78.2497 52.7926 78.2497H65.7934C67.2893 78.2497 68.5019 77.0369 68.5019 75.5413C68.5019 74.0456 67.2893 72.8328 65.7934 72.8328Z" fill="#0E334E"/>
<path d="M65.7934 85.8335H52.7926C51.2967 85.8335 50.0841 87.0464 50.0841 88.542C50.0841 90.0376 51.2967 91.2505 52.7926 91.2505H65.7934C67.2893 91.2505 68.5019 90.0376 68.5019 88.542C68.5019 87.0464 67.2893 85.8335 65.7934 85.8335Z" fill="#0E334E"/>
<path d="M1.5 1.5H195C205.217 1.5 213.5 9.78273 213.5 20V195C213.5 205.217 205.217 213.5 195 213.5H20C9.78273 213.5 1.5 205.217 1.5 195V1.5Z" stroke="#0E334E" stroke-width="3"/>
</svg>
