<svg width="250" height="250" viewBox="0 0 250 250" fill="none" xmlns="http://www.w3.org/2000/svg">
<path d="M200.797 206.25C199.926 206.25 199.06 205.98 198.328 205.449L180.501 192.518H120.924C113.971 192.518 108.313 186.86 108.313 179.906V107.041C108.313 104.719 110.195 102.837 112.517 102.837H192.389C199.343 102.837 205 108.494 205 115.448V202.046C205 203.627 204.114 205.073 202.706 205.791C202.103 206.099 201.449 206.25 200.797 206.25V206.25Z" fill="#FF435B"/>
<path d="M48.4751 176.646C47.2436 176.646 46.0358 176.164 45.1339 175.262C43.8297 173.958 43.4036 172.014 44.0432 170.284L53.8187 143.835C47.2232 133.513 43.75 121.622 43.75 109.286C43.75 73.8389 72.5889 45 108.036 45C143.484 45 172.323 73.8386 172.323 109.286C172.323 144.734 143.484 173.573 108.036 173.573C97.5058 173.573 87.1354 170.989 77.8994 166.082L50.1124 176.353C49.5783 176.55 49.0243 176.646 48.4751 176.646V176.646Z" fill="#7DD5F4"/>
<path d="M108.313 45.0034V173.569C143.634 173.419 172.323 144.641 172.323 109.286C172.323 73.9314 143.634 45.1536 108.313 45.0034V45.0034Z" fill="#4793FF"/>
<path d="M108.313 137.278C105.704 137.278 103.589 135.163 103.589 132.554V85.9424C103.589 83.3334 105.704 81.2183 108.313 81.2183C110.922 81.2183 113.037 83.3334 113.037 85.9424V132.554C113.037 135.163 110.922 137.278 108.313 137.278Z" fill="#FFF4F4"/>
<path d="M127.21 119.585C124.601 119.585 122.486 117.469 122.486 114.86V103.636C122.486 101.027 124.601 98.9121 127.21 98.9121C129.819 98.9121 131.934 101.027 131.934 103.636V114.86C131.934 117.469 129.819 119.585 127.21 119.585Z" fill="#F6EFEA"/>
<path d="M89.4165 119.585C86.8075 119.585 84.6924 117.469 84.6924 114.86V103.636C84.6924 101.027 86.8075 98.9121 89.4165 98.9121C92.0255 98.9121 94.1406 101.027 94.1406 103.636V114.86C94.1406 117.469 92.0255 119.585 89.4165 119.585Z" fill="#FFF4F4"/>
<path d="M146.106 127.143C143.497 127.143 141.382 125.028 141.382 122.419V96.0779C141.382 93.4689 143.497 91.3538 146.106 91.3538C148.715 91.3538 150.83 93.4689 150.83 96.0779V122.419C150.83 125.028 148.715 127.143 146.106 127.143Z" fill="#F6EFEA"/>
<path d="M70.52 127.143C67.911 127.143 65.7959 125.028 65.7959 122.419V96.0779C65.7959 93.4689 67.911 91.3538 70.52 91.3538C73.129 91.3538 75.2441 93.4689 75.2441 96.0779V122.419C75.2441 125.028 73.129 127.143 70.52 127.143Z" fill="#FFF4F4"/>
<path d="M108.313 81.2183V137.278C110.922 137.278 113.037 135.163 113.037 132.554V85.9424C113.037 83.3334 110.922 81.2183 108.313 81.2183Z" fill="#F6EFEA"/>
<path d="M20 1.5H248.5V230C248.5 240.217 240.217 248.5 230 248.5H20C9.78273 248.5 1.5 240.217 1.5 230V20C1.5 9.78273 9.78273 1.5 20 1.5Z" stroke="#0E334E" stroke-width="3"/>
</svg>
