<svg width="80" height="80" viewBox="0 0 80 80" fill="none" xmlns="http://www.w3.org/2000/svg">
<g clip-path="url(#clip0)">
<path d="M76.7804 15.6138H38.9535C37.1755 15.6138 35.7341 17.0552 35.7341 18.8331V76.7808C35.7341 78.5587 37.1755 80.0001 38.9535 80.0001H76.7805C78.5585 80.0001 79.9999 78.5587 79.9999 76.7808V18.833C79.9998 17.055 78.5583 15.6138 76.7804 15.6138Z" fill="#FF8A98"/>
<path d="M68.5712 15.6138H38.9535C37.1755 15.6138 35.7341 17.0552 35.7341 18.8331V76.7808C35.7341 78.5587 37.1755 80.0001 38.9535 80.0001H68.5712V15.6138Z" fill="#FD5C6F"/>
<path d="M58.9134 7.80688H21.0866C19.3086 7.80688 17.8672 9.24829 17.8672 11.0263V68.9739C17.8672 70.7519 19.3086 72.1933 21.0866 72.1933H58.9136C60.6916 72.1933 62.133 70.7519 62.133 68.9739V11.0261C62.1328 9.24814 60.6914 7.80688 58.9134 7.80688Z" fill="#F4E74D"/>
<path d="M50.7042 7.80688H21.0866C19.3086 7.80688 17.8672 9.24829 17.8672 11.0263V68.9739C17.8672 70.7519 19.3086 72.1933 21.0866 72.1933H50.7042V7.80688Z" fill="#EEDB00"/>
<path d="M41.0463 0H3.21938C1.44141 0 0 1.44141 0 3.21938V61.167C0 62.945 1.44141 64.3864 3.21938 64.3864H41.0464C42.8244 64.3864 44.2658 62.945 44.2658 61.167V3.21938C44.2656 1.44141 42.8242 0 41.0463 0V0Z" fill="#B18CD9"/>
<path d="M44.2656 57.9477C23.3744 57.9477 6.43875 41.012 6.43875 20.1208V0H3.21938C1.44141 0 0 1.44141 0 3.21938V61.167C0 62.945 1.44141 64.3864 3.21938 64.3864H41.0464C42.8244 64.3864 44.2658 62.945 44.2658 61.167L44.2656 57.9477Z" fill="#996ACC"/>
<path d="M15.1165 20.4712H29.149V51.2823C29.149 51.7685 28.9471 52.2329 28.5918 52.5646L23.3296 57.476C22.6557 58.1051 21.6099 58.1051 20.936 57.476L15.6738 52.5646C15.3183 52.2329 15.1166 51.7685 15.1166 51.2823V20.4712H15.1165Z" fill="white"/>
<path d="M22.1327 34.5037V57.9476C21.7027 57.9476 21.2729 57.7904 20.9358 57.4759L15.6736 52.5645C15.3182 52.2327 15.1165 51.7684 15.1165 51.2821V27.4874V20.4712H22.1327H29.149V27.4874C25.274 27.4874 22.1327 30.6287 22.1327 34.5037Z" fill="#EFE6E6"/>
<path d="M18.6248 20.4709V6.43845H25.641V20.4709H18.6248Z" fill="#6B7D8E"/>
<path d="M25.641 13.4547V20.471H18.6248V6.43848H22.1329V9.9466C22.1329 11.8841 23.7035 13.4547 25.641 13.4547Z" fill="#546370"/>
<path d="M13.3625 16.9629H30.9031C31.8718 16.9629 32.6572 17.7482 32.6572 18.717V22.2251C32.6572 23.1938 31.8718 23.9791 30.9031 23.9791H13.3625C12.3937 23.9791 11.6084 23.1938 11.6084 22.2251V18.7171C11.6084 17.7484 12.3937 16.9629 13.3625 16.9629Z" fill="#F4E74D"/>
<path d="M18.6246 18.7172V22.2253C18.6246 23.1941 19.41 23.9794 20.3787 23.9794H13.3625C12.3937 23.9794 11.6084 23.1941 11.6084 22.2253V18.7172C11.6084 17.7484 12.3937 16.9631 13.3625 16.9631H20.3787C19.41 16.963 18.6246 17.7483 18.6246 18.7172Z" fill="#EEDB00"/>
<path d="M27.3947 7.61035H16.8704C16.2232 7.61035 15.6985 7.08566 15.6985 6.43848C15.6985 5.79129 16.2232 5.2666 16.8704 5.2666H27.3947C28.0419 5.2666 28.5666 5.79129 28.5666 6.43848C28.5666 7.08566 28.0419 7.61035 27.3947 7.61035Z" fill="#F4E74D"/>
</g>
<defs>
<clipPath id="clip0">
<rect width="80" height="80" fill="white"/>
</clipPath>
</defs>
</svg>
