<svg width="215" height="215" viewBox="0 0 215 215" fill="none" xmlns="http://www.w3.org/2000/svg">
<path d="M169.333 86.2698V64.5842C169.333 61.1109 167.583 57.9235 164.653 56.0579L155.391 50.1615V41.4084C155.391 39.9125 154.178 38.7 152.682 38.7H121.012C119.517 38.7 118.304 39.9125 118.304 41.4084C118.304 42.9043 119.517 44.1169 121.012 44.1169H149.974V144.053H68.027V44.1169H97.2243C98.72 44.1169 99.9328 42.9043 99.9328 41.4084C99.9328 39.9125 98.72 38.7 97.2243 38.7H62.8833C52.48 38.7 46.219 47.437 46.225 57.1082C46.2269 61.0285 46.2553 151.865 46.2334 159.786C46.2009 169.18 53.1165 177.375 62.8847 177.375H152.683C154.178 177.375 155.391 176.162 155.391 174.666L155.39 141.047L164.653 135.151C167.583 133.284 169.332 130.096 169.332 126.623V104.939C169.332 101.466 167.583 98.2779 164.652 96.4107L163.384 95.6038L164.653 94.7962C167.583 92.9308 169.333 89.7435 169.333 86.2698V86.2698ZM62.3701 144.066C58.4243 144.189 54.5796 145.748 51.6612 148.413C51.6666 133.085 51.6634 61.0283 51.6612 57.1072C51.6574 50.4857 55.2987 44.3038 62.61 44.124V144.056C62.5296 144.057 62.4502 144.063 62.3701 144.066V144.066ZM62.8847 171.958C56.7023 171.958 51.5537 166.725 51.6477 160.546C51.7341 154.439 56.7746 149.471 62.883 149.471L149.974 149.47V158.391H65.3185C63.8229 158.391 62.61 159.603 62.61 161.099C62.61 162.595 63.8229 163.808 65.3185 163.808H149.974V171.958H62.8847ZM163.916 126.623C163.916 128.235 163.103 129.715 161.743 130.581L155.392 134.624V100.692L158.341 98.8156L161.743 100.98C163.103 101.847 163.916 103.327 163.916 104.939V126.623ZM163.916 86.2698C163.916 87.8819 163.104 89.361 161.744 90.2264L155.391 94.2704V56.5836L161.744 60.6277C163.104 61.4933 163.916 62.9724 163.916 64.5842V86.2698Z" fill="#0E334E"/>
<path d="M81.7478 87.0641L83.0405 83.6699H91.9279L93.206 87.0566C93.7272 88.4371 95.3141 89.1559 96.6965 88.6343C98.0962 88.1061 98.8023 86.5436 98.2745 85.1438L90.4875 64.5091C90.4778 64.4839 90.468 64.4585 90.4577 64.4336C89.9645 63.2361 88.8096 62.4631 87.5147 62.4631C87.5133 62.4631 87.512 62.4631 87.5106 62.4631C86.2141 62.4648 85.0594 63.2413 84.5687 64.4412C84.5605 64.4615 84.5521 64.4818 84.5445 64.5026L76.6858 85.1362C76.1534 86.5341 76.8549 88.0988 78.2527 88.6313C79.6506 89.164 81.2153 88.4623 81.7478 87.0641V87.0641ZM87.5049 71.9488L89.8838 78.2529H85.1039L87.5049 71.9488Z" fill="#0E334E"/>
<path d="M122.175 87.3913C122.648 88.265 123.563 88.8092 124.556 88.8092H138.518C140.013 88.8092 141.226 87.5966 141.226 86.1007C141.226 84.6048 140.013 83.3922 138.518 83.3922H129.554L140.462 66.6507C141.005 65.8181 141.047 64.7553 140.574 63.8815C140.1 63.0078 139.186 62.4636 138.193 62.4636H124.985C123.489 62.4636 122.277 63.6762 122.277 65.1721C122.277 66.668 123.489 67.8806 124.985 67.8806H133.195L122.287 84.6221C121.744 85.4547 121.702 86.5175 122.175 87.3913V87.3913Z" fill="#0E334E"/>
<path d="M105.129 78.3447H115.901C117.397 78.3447 118.609 77.1321 118.609 75.6362C118.609 74.1403 117.397 72.9277 115.901 72.9277H105.129C103.633 72.9277 102.421 74.1403 102.421 75.6362C102.421 77.1321 103.633 78.3447 105.129 78.3447V78.3447Z" fill="#0E334E"/>
<path d="M76.5082 114.008C76.5082 120.738 81.9829 126.213 88.7124 126.213H129.022C135.752 126.213 141.226 120.738 141.226 114.008C141.226 107.279 135.752 101.804 129.022 101.804H88.7124C81.9829 101.804 76.5082 107.279 76.5082 114.008V114.008ZM135.809 114.008C135.809 117.751 132.765 120.796 129.022 120.796H88.7124C84.9701 120.796 81.9252 117.751 81.9252 114.008C81.9252 110.266 84.9698 107.221 88.7124 107.221H129.022C132.764 107.221 135.809 110.266 135.809 114.008Z" fill="#0E334E"/>
<path d="M106.703 42.4458C107.149 43.5146 108.248 44.192 109.403 44.1091C110.532 44.0281 111.509 43.2188 111.813 42.1308C112.456 39.8232 109.867 37.8657 107.812 39.087C106.669 39.7666 106.202 41.2221 106.703 42.4458V42.4458Z" fill="#0E334E"/>
<path d="M20 1.5H195C205.217 1.5 213.5 9.78273 213.5 20V195C213.5 205.217 205.217 213.5 195 213.5H1.5V20C1.5 9.78273 9.78273 1.5 20 1.5Z" stroke="#0E334E" stroke-width="3"/>
</svg>
