<svg width="80" height="80" viewBox="0 0 80 80" fill="none" xmlns="http://www.w3.org/2000/svg">
<g clip-path="url(#clip0)">
<path d="M39.7806 66.6669H76.2748C76.893 66.6669 77.352 66.095 77.2177 65.4919L73.27 47.7258H38.8578L38.8145 65.6989C38.8132 66.2335 39.246 66.6669 39.7806 66.6669Z" fill="#FDA400"/>
<path d="M77.218 65.4921L73.2703 47.7266H69.4067L73.3545 65.4921C73.4888 66.0951 73.0298 66.6676 72.4121 66.6676H76.275C76.8933 66.667 77.3523 66.0951 77.218 65.4921Z" fill="#FD7E00"/>
<path d="M46.5845 26.6969V37.4244H73.3105L77.218 19.8414C77.3523 19.2384 76.8933 18.6665 76.2756 18.6665H48.1458L46.5845 26.6969Z" fill="#2B2B2B"/>
<path d="M76.2752 18.6665H72.4122C73.0299 18.6665 73.4889 19.2384 73.3546 19.8414L69.4478 37.4244H73.3107L77.2181 19.8414C77.3524 19.2384 76.8934 18.6665 76.2752 18.6665Z" fill="#1F1F1F"/>
<path d="M73.924 50.6671H46.5845V34.6667H73.9233L72.1924 42.4573C72.1613 42.5952 72.1613 42.7386 72.1924 42.8766L73.924 50.6671Z" fill="#D13838"/>
<path d="M72.1923 42.4573L73.9239 34.6667H70.0854L68.3544 42.4573C68.3239 42.5952 68.3239 42.7386 68.3544 42.8766L70.0854 50.6665H73.9239L72.1923 42.8766C72.1618 42.7386 72.1618 42.5952 72.1923 42.4573Z" fill="#B83131"/>
<path d="M8.00781 24.5471H48.1458V44.7864H8.00781V24.5471Z" fill="#E24242"/>
<path d="M8.00781 42.6665H48.1458V58.6669H8.00781V42.6665Z" fill="#FDBF00"/>
<path d="M8.00781 26.6663H48.1458V11.6321C48.1458 11.0986 47.7136 10.6665 47.1802 10.6665H8.00781V26.6663Z" fill="#333333"/>
<path d="M38.8315 58.6665L38.8145 65.699C38.8138 65.9773 38.9316 66.2275 39.119 66.4039L48.1455 58.6671L38.8315 58.6665Z" fill="#FD7E00"/>
<path d="M4.14551 5.2312H9.47876V79.9999H4.14551V5.2312Z" fill="#D9E7EC"/>
<path d="M5.61572 5.2312H9.47925V79.9999H5.61572V5.2312Z" fill="#AAD4EC"/>
<path d="M10.8124 4.00024C10.8124 6.20911 9.02161 7.99988 6.81274 7.99988C4.60327 7.99988 2.8125 6.20911 2.8125 4.00024C2.8125 1.79077 4.60327 0 6.81274 0C9.02161 0 10.8124 1.79077 10.8124 4.00024Z" fill="#D9E7EC"/>
<path d="M4.14551 19.8743H9.47937C10.1459 19.8743 10.6866 19.3335 10.6866 18.667C10.6866 17.9999 10.1459 17.4597 9.47937 17.4597H4.14551C3.479 17.4597 2.93823 17.9999 2.93823 18.667C2.93823 19.3335 3.479 19.8743 4.14551 19.8743Z" fill="#1F1F1F"/>
<path d="M9.47937 49.4592H4.14551C3.479 49.4592 2.93823 49.9994 2.93823 50.6665C2.93823 51.333 3.479 51.8738 4.14551 51.8738H9.47937C10.1459 51.8738 10.6866 51.333 10.6866 50.6665C10.6866 49.9994 10.1459 49.4592 9.47937 49.4592Z" fill="#FD7E00"/>
<path d="M6.8125 0C6.23938 0 5.69495 0.12146 5.20239 0.338135C6.60986 0.957642 7.59314 2.36389 7.59314 4.00024C7.59314 5.6366 6.60986 7.04224 5.20239 7.66174C5.69495 7.87842 6.23938 7.99988 6.8125 7.99988C9.02136 7.99988 10.8121 6.20911 10.8121 4.00024C10.8121 1.79077 9.02136 0 6.8125 0V0Z" fill="#AAD4EC"/>
<path d="M6.81262 0C6.11194 0 5.45337 0.180664 4.88086 0.496826C6.11377 1.17859 6.94934 2.49146 6.94934 3.99963C6.94934 5.50842 6.11377 6.82129 4.88086 7.50244C5.45337 7.81921 6.11194 7.99988 6.81262 7.99988C9.02148 7.99988 10.8123 6.20911 10.8123 3.99963C10.8123 1.79077 9.02148 0 6.81262 0Z" fill="#AAD4EC"/>
</g>
<defs>
<clipPath id="clip0">
<rect width="80" height="80" fill="white"/>
</clipPath>
</defs>
</svg>
