<svg width="40" height="40" viewBox="0 0 40 40" fill="none" xmlns="http://www.w3.org/2000/svg">
<path d="M29.4057 18.1247C29.5307 18.7942 29.5987 19.4941 29.5987 20.2245C29.5987 25.9376 25.7751 30 20 30C18.6867 30.0004 17.3861 29.742 16.1727 29.2396C14.9593 28.7372 13.8567 28.0006 12.928 27.072C11.9994 26.1433 11.2628 25.0407 10.7604 23.8273C10.258 22.6139 9.9996 21.3133 10 20C9.9996 18.6867 10.258 17.3861 10.7604 16.1727C11.2628 14.9593 11.9994 13.8567 12.928 12.928C13.8567 11.9994 14.9593 11.2628 16.1727 10.7604C17.3861 10.258 18.6867 9.9996 20 10C22.7001 10 24.9563 10.9935 26.6873 12.6067L23.8683 15.4256V15.4185C22.819 14.4189 21.4872 13.9059 20 13.9059C16.7005 13.9059 14.0187 16.6934 14.0187 19.9939C14.0187 23.2934 16.7005 26.087 20 26.087C22.9937 26.087 25.0315 24.3753 25.45 22.0246H20V18.1247H29.4067H29.4057Z" fill="white"/>
</svg>
