<svg width="40" height="40" viewBox="0 0 40 40" fill="none" xmlns="http://www.w3.org/2000/svg">
<path d="M10 13.6986V10H14.3836V13.6986H10ZM10.1096 30V15.3151H14.274V30H10.1096Z" fill="white"/>
<path d="M17.5244 30V15.3151H21.6888V17.3973C22.9125 15.8265 24.3463 15.0411 25.9901 15.0411C27.5609 15.0411 28.7847 15.5251 29.6614 16.4932C30.5381 17.4612 30.9764 18.7945 30.9764 20.4932V30H26.8121V21.8082C26.8121 20.8402 26.5929 20.1005 26.1545 19.589C25.7162 19.0776 25.0952 18.8219 24.2915 18.8219C23.4879 18.8219 22.8486 19.0776 22.3737 19.589C21.9171 20.1005 21.6888 20.8402 21.6888 21.8082V30H17.5244Z" fill="white"/>
</svg>
