<svg width="83" height="27" viewBox="0 0 83 27" fill="none" xmlns="http://www.w3.org/2000/svg">
<g filter="url(#filter0_d)">
<path d="M4.74758 18.3865C3.9884 18.3865 3.44728 18.1604 3.12423 17.7081C2.80118 17.2558 2.63965 16.5936 2.63965 15.7213V0.84469H4.62643V15.8667C4.62643 16.1898 4.68297 16.4159 4.79604 16.5451C4.9091 16.6744 5.03833 16.739 5.1837 16.739C5.24831 16.739 5.30485 16.739 5.3533 16.739C5.41792 16.739 5.50676 16.7228 5.61982 16.6905L5.88634 18.1927C5.75712 18.2573 5.60367 18.3058 5.42599 18.3381C5.24831 18.3704 5.02217 18.3865 4.74758 18.3865Z" fill="#F6F6F8"/>
<path d="M13.5883 18.3865C12.7969 18.3865 12.0538 18.2492 11.3593 17.9746C10.6809 17.6839 10.0832 17.2801 9.56632 16.7632C9.06559 16.2302 8.66985 15.584 8.3791 14.8249C8.08835 14.0657 7.94298 13.2015 7.94298 12.2324C7.94298 11.2632 8.08835 10.399 8.3791 9.63984C8.686 8.86451 9.08174 8.21033 9.56632 7.67729C10.0671 7.14425 10.6324 6.74043 11.2624 6.46584C11.8923 6.17509 12.5465 6.02971 13.2249 6.02971C13.9679 6.02971 14.6302 6.15893 15.2117 6.41738C15.8093 6.67582 16.302 7.04733 16.6897 7.53191C17.0935 8.0165 17.4004 8.59799 17.6104 9.27641C17.8204 9.95482 17.9254 10.714 17.9254 11.5539C17.9254 11.7639 17.9173 11.9739 17.9011 12.1839C17.9011 12.3777 17.885 12.5473 17.8527 12.6927H9.90553C9.98629 13.9526 10.374 14.9541 11.0685 15.6971C11.7792 16.424 12.7 16.7874 13.8306 16.7874C14.396 16.7874 14.9129 16.7067 15.3813 16.5451C15.8659 16.3674 16.3262 16.1413 16.7624 15.8667L17.465 17.1751C16.9481 17.4981 16.3747 17.7808 15.7447 18.0231C15.1148 18.2654 14.396 18.3865 13.5883 18.3865ZM9.8813 11.2632H16.1809C16.1809 10.0679 15.9224 9.16334 15.4055 8.54954C14.9048 7.91958 14.1941 7.6046 13.2734 7.6046C12.8534 7.6046 12.4496 7.68536 12.0619 7.84689C11.6904 8.00842 11.3512 8.25071 11.0443 8.57376C10.7374 8.88067 10.479 9.26025 10.269 9.71253C10.0751 10.1648 9.94591 10.6817 9.8813 11.2632Z" fill="#F6F6F8"/>
<path d="M19.0219 18.0958L22.8743 11.9416L19.3127 6.32046H21.469L23.0439 8.91297C23.2216 9.23603 23.4074 9.56716 23.6012 9.90636C23.795 10.2294 23.9969 10.5525 24.2069 10.8755H24.3038C24.4815 10.5525 24.6592 10.2294 24.8369 9.90636C25.0146 9.56716 25.1922 9.23603 25.3699 8.91297L26.7994 6.32046H28.8831L25.3215 12.1597L29.1497 18.0958H26.9933L25.273 15.3579C25.063 15.0025 24.853 14.6472 24.6431 14.2918C24.4331 13.9365 24.215 13.5892 23.9889 13.25H23.892C23.682 13.5892 23.4801 13.9365 23.2862 14.2918C23.0924 14.631 22.8986 14.9864 22.7047 15.3579L21.1056 18.0958H19.0219Z" fill="#F6F6F8"/>
<path d="M31.4827 18.0958V6.32046H33.4694V18.0958H31.4827ZM32.5003 3.89755C32.1126 3.89755 31.7815 3.77641 31.5069 3.53412C31.2484 3.29183 31.1192 2.98492 31.1192 2.61341C31.1192 2.22575 31.2484 1.91884 31.5069 1.69271C31.7815 1.45042 32.1126 1.32927 32.5003 1.32927C32.8879 1.32927 33.211 1.45042 33.4694 1.69271C33.744 1.91884 33.8813 2.22575 33.8813 2.61341C33.8813 2.98492 33.744 3.29183 33.4694 3.53412C33.211 3.77641 32.8879 3.89755 32.5003 3.89755Z" fill="#F6F6F8"/>
<path d="M37.6149 22.3601L36.3792 21.7786C37.3161 20.2279 38.0106 18.5723 38.4629 16.8116C38.9313 15.0349 39.1655 13.2177 39.1655 11.3601C39.1655 9.50255 38.9313 7.69344 38.4629 5.93279C38.0106 4.156 37.3161 2.49227 36.3792 0.941606L37.6149 0.360107C38.6163 1.99153 39.3998 3.70372 39.9651 5.49667C40.5304 7.27347 40.8131 9.22795 40.8131 11.3601C40.8131 13.4923 40.5304 15.4548 39.9651 17.2478C39.3998 19.0407 38.6163 20.7448 37.6149 22.3601Z" fill="#F6F6F8"/>
<path d="M47.9785 22.3601C46.977 20.7448 46.1936 19.0407 45.6283 17.2478C45.0629 15.4548 44.7802 13.4923 44.7802 11.3601C44.7802 9.22795 45.0629 7.27347 45.6283 5.49667C46.1936 3.70372 46.977 1.99153 47.9785 0.360107L49.2142 0.941606C48.2773 2.49227 47.5747 4.156 47.1062 5.93279C46.654 7.69344 46.4278 9.50255 46.4278 11.3601C46.4278 13.2177 46.654 15.0349 47.1062 16.8116C47.5747 18.5723 48.2773 20.2279 49.2142 21.7786L47.9785 22.3601Z" fill="#F6F6F8"/>
<path d="M54.2232 18.3865C53.464 18.3865 52.9229 18.1604 52.5998 17.7081C52.2768 17.2558 52.1152 16.5936 52.1152 15.7213V0.84469H54.102V15.8667C54.102 16.1898 54.1585 16.4159 54.2716 16.5451C54.3847 16.6744 54.5139 16.739 54.6593 16.739C54.7239 16.739 54.7804 16.739 54.8289 16.739C54.8935 16.739 54.9823 16.7228 55.0954 16.6905L55.3619 18.1927C55.2327 18.2573 55.0792 18.3058 54.9016 18.3381C54.7239 18.3704 54.4977 18.3865 54.2232 18.3865Z" fill="#F6F6F8"/>
<path d="M61.0045 18.3865C60.0191 18.3865 59.1953 18.0958 58.5331 17.5143C57.887 16.9328 57.5639 16.109 57.5639 15.0429C57.5639 13.7507 58.1373 12.7654 59.2842 12.087C60.431 11.3924 62.2644 10.9078 64.7842 10.6332C64.7842 10.2617 64.7438 9.89829 64.663 9.54293C64.5984 9.18757 64.4773 8.87259 64.2996 8.59799C64.1219 8.3234 63.8716 8.10534 63.5485 7.94381C63.2416 7.76613 62.8459 7.67729 62.3613 7.67729C61.6829 7.67729 61.0448 7.80651 60.4472 8.06495C59.8495 8.3234 59.3165 8.61415 58.8481 8.9372L58.0727 7.55614C58.6219 7.20078 59.2923 6.86158 60.0837 6.53852C60.8752 6.19931 61.7475 6.02971 62.7005 6.02971C64.1381 6.02971 65.1799 6.47391 65.826 7.36231C66.4721 8.23456 66.7952 9.40563 66.7952 10.8755V18.0958H65.1476L64.978 16.6905H64.9053C64.34 17.1589 63.7343 17.5628 63.0882 17.902C62.442 18.225 61.7475 18.3865 61.0045 18.3865ZM61.586 16.7874C62.1513 16.7874 62.6843 16.6582 63.1851 16.3998C63.6858 16.1252 64.2188 15.7294 64.7842 15.2125V11.9416C63.7989 12.0708 62.967 12.2243 62.2886 12.402C61.6263 12.5796 61.0852 12.7896 60.6652 13.0319C60.2614 13.2742 59.9626 13.5569 59.7688 13.8799C59.5911 14.1868 59.5022 14.526 59.5022 14.8976C59.5022 15.576 59.7042 16.0605 60.108 16.3513C60.5118 16.642 61.0045 16.7874 61.586 16.7874Z" fill="#F6F6F8"/>
<path d="M75.7092 18.3865C75.16 18.3865 74.5866 18.2573 73.989 17.9989C73.4075 17.7243 72.8583 17.3528 72.3414 16.8843H72.2687L72.0991 18.0958H70.5V0.84469H72.4868V5.54513L72.4383 7.67729C72.9713 7.20886 73.5528 6.82119 74.1828 6.51429C74.8128 6.19124 75.4589 6.02971 76.1211 6.02971C76.8803 6.02971 77.5506 6.17509 78.1321 6.46584C78.7136 6.74043 79.1982 7.14425 79.5859 7.67729C79.9897 8.19418 80.2885 8.82413 80.4824 9.56716C80.6923 10.294 80.7973 11.1097 80.7973 12.0143C80.7973 13.0158 80.66 13.9122 80.3854 14.7037C80.1108 15.4952 79.7393 16.1655 79.2709 16.7147C78.8025 17.2639 78.2614 17.6839 77.6476 17.9746C77.0338 18.2492 76.3876 18.3865 75.7092 18.3865ZM75.37 16.7147C75.8546 16.7147 76.2988 16.6097 76.7026 16.3998C77.1226 16.1736 77.4779 15.8667 77.7687 15.4791C78.0756 15.0752 78.3098 14.5826 78.4713 14.0011C78.649 13.4196 78.7379 12.7654 78.7379 12.0385C78.7379 11.3924 78.6813 10.8028 78.5683 10.2698C78.4552 9.73676 78.2694 9.28448 78.011 8.91297C77.7687 8.52531 77.4456 8.22648 77.0418 8.0165C76.6542 7.80651 76.1857 7.70152 75.6365 7.70152C74.6835 7.70152 73.6336 8.23456 72.4868 9.30064V15.4791C73.0036 15.9313 73.5125 16.2544 74.0132 16.4482C74.5301 16.6259 74.9824 16.7147 75.37 16.7147Z" fill="#F6F6F8"/>
</g>
<defs>
<filter id="filter0_d" x="0.639648" y="0.360107" width="82.1577" height="26" filterUnits="userSpaceOnUse" color-interpolation-filters="sRGB">
<feFlood flood-opacity="0" result="BackgroundImageFix"/>
<feColorMatrix in="SourceAlpha" type="matrix" values="0 0 0 0 0 0 0 0 0 0 0 0 0 0 0 0 0 0 127 0"/>
<feOffset dy="2"/>
<feGaussianBlur stdDeviation="1"/>
<feColorMatrix type="matrix" values="0 0 0 0 0.0135243 0 0 0 0 0.0514738 0 0 0 0 0.0791667 0 0 0 1 0"/>
<feBlend mode="normal" in2="BackgroundImageFix" result="effect1_dropShadow"/>
<feBlend mode="normal" in="SourceGraphic" in2="effect1_dropShadow" result="shape"/>
</filter>
</defs>
</svg>
