<svg width="80" height="80" viewBox="0 0 80 80" fill="none" xmlns="http://www.w3.org/2000/svg">
<g clip-path="url(#clip0)">
<path d="M39.9995 79.9996C62.0907 79.9996 79.9991 62.0912 79.9991 40C79.9991 17.9089 62.0907 0.000488281 39.9995 0.000488281C17.9084 0.000488281 0 17.9089 0 40C0 62.0912 17.9084 79.9996 39.9995 79.9996Z" fill="#41B4E6"/>
<path d="M80 40.0004C80 39.0257 79.9633 38.0599 79.8949 37.1026L63.3169 20.5249L16.6832 38.8685L34.5255 56.711L34.7596 57.5535L35.0625 57.248L35.0638 57.2493L34.7596 57.5535L54.4966 77.2905C69.4216 71.4843 80 56.9785 80 40.0004Z" fill="#0091C8"/>
<path d="M36.1153 45.828L54.192 59.476L63.3169 20.5249L16.683 38.8685L30.8731 43.5687L56.7705 26.1974L36.1153 45.828Z" fill="white"/>
<path d="M30.8731 43.5688L34.7595 57.5538L36.1153 45.8281L56.7705 26.1975L30.8731 43.5688Z" fill="#D2D2D7"/>
<path d="M41.9904 50.2637L34.7596 57.5537L36.1154 45.8281L41.9904 50.2637Z" fill="#B9B9BE"/>
</g>
<defs>
<clipPath id="clip0">
<rect width="80" height="80" fill="white"/>
</clipPath>
</defs>
</svg>
