<svg width="215" height="215" viewBox="0 0 215 215" fill="none" xmlns="http://www.w3.org/2000/svg">
<path d="M161.418 88.3516H125.982C126.094 87.1085 126.155 85.8498 126.155 84.5772C126.155 61.6514 107.503 43 84.5772 43C77.2745 43 70.0909 44.9211 63.8029 48.5548C62.5982 49.2506 62.1858 50.7918 62.8817 51.9965C63.5785 53.2021 65.1197 53.6135 66.3244 52.9177C71.8467 49.726 78.1583 48.0391 84.5772 48.0391C104.725 48.0391 121.116 64.4298 121.116 84.5772C121.116 104.725 104.725 121.116 84.5772 121.116C76.1436 121.116 68.2209 118.322 61.6652 113.037C61.0078 112.508 60.1367 112.349 59.3435 112.592L52.6559 114.341L55.2758 108.584C55.6528 107.757 55.5544 106.792 55.0199 106.057C50.4533 99.7849 48.0391 92.3572 48.0391 84.5772C48.0391 78.1416 49.7348 71.8142 52.9433 66.2801C53.6411 65.0754 53.2307 63.5342 52.027 62.8364C50.8233 62.1386 49.2821 62.548 48.5833 63.7527C44.931 70.0535 43 77.2548 43 84.5772C43 92.932 45.4477 100.932 50.0931 107.807L45.8748 117.075C45.4713 117.96 45.614 118.997 46.24 119.741C46.8659 120.485 47.8639 120.802 48.8048 120.556L59.5197 117.755C66.7023 123.181 75.5492 126.155 84.5772 126.155C86.5426 126.155 88.4746 126.015 90.3672 125.75V147.813C90.3672 153.647 95.1139 158.395 100.948 158.395H136.583L152.516 171.43C152.975 171.806 153.54 171.999 154.111 171.999C154.478 171.999 154.847 171.919 155.19 171.757C156.07 171.34 156.631 170.454 156.631 169.479V158.395H161.418C167.253 158.395 172 153.647 172 147.813V98.9336C172 93.0983 167.253 88.3516 161.418 88.3516V88.3516ZM166.961 147.813C166.961 150.868 164.475 153.355 161.418 153.355H154.111C152.72 153.355 151.592 154.483 151.592 155.875V164.163L139.148 153.981C138.462 153.355 137.861 153.355 136.512 153.355H100.948C97.8923 153.355 95.4062 150.868 95.4062 147.813V124.721C110.31 120.697 121.921 108.578 125.212 93.3906H161.418C164.475 93.3906 166.961 95.8767 166.961 98.9336V147.813Z" fill="#0E334E"/>
<path d="M143.721 130.832C144.576 130.43 145.168 129.563 145.168 128.555C145.168 127.164 144.04 126.035 142.649 126.035H141.617L133.492 107.517C133.089 106.601 132.184 106.009 131.184 106.009C130.184 106.009 129.278 106.601 128.877 107.517L120.751 126.035H119.72C118.328 126.035 117.2 127.164 117.2 128.555C117.2 129.563 117.793 130.43 118.647 130.832L115.621 137.73C115.062 139.004 115.641 140.49 116.915 141.049C118.189 141.608 119.676 141.029 120.235 139.754L124.043 131.074H138.325L142.134 139.754C142.548 140.699 143.472 141.262 144.443 141.262C144.78 141.262 145.124 141.194 145.453 141.049C146.727 140.49 147.308 139.004 146.748 137.73L143.721 130.832ZM126.254 126.035L131.184 114.8L136.114 126.035H126.254Z" fill="#0E334E"/>
<path d="M56.9587 59.4773C57.6211 59.4773 58.2707 59.2076 58.7401 58.7392C59.2086 58.2707 59.4783 57.6211 59.4783 56.9578C59.4783 56.2954 59.2086 55.6458 58.7401 55.1764C58.2707 54.7079 57.6211 54.4382 56.9587 54.4382C56.2934 54.4382 55.6458 54.7079 55.1774 55.1764C54.7089 55.6458 54.4392 56.2954 54.4392 56.9578C54.4392 57.6211 54.7089 58.2707 55.1774 58.7392C55.6458 59.2086 56.2954 59.4773 56.9587 59.4773Z" fill="#0E334E"/>
<path d="M69.5376 99.9109C68.3173 100.58 67.8704 102.112 68.5397 103.332C68.9983 104.167 69.8614 104.641 70.7512 104.641C71.1606 104.641 71.5759 104.54 71.9607 104.33C77.5795 101.248 81.9021 96.4554 84.4304 90.8031C86.9598 96.4554 91.2814 101.248 96.9002 104.33C97.285 104.54 97.7003 104.641 98.1097 104.641C98.9994 104.641 99.8626 104.167 100.321 103.332C100.99 102.112 100.544 100.58 99.3232 99.9109C92.7459 96.3038 88.319 89.8573 87.2196 82.5733H98.406C99.7976 82.5733 100.925 81.4454 100.925 80.0538C100.925 78.6622 99.7976 77.5343 98.406 77.5343H86.95V67.0349C86.95 65.6433 85.8221 64.5154 84.4304 64.5154C83.0388 64.5154 81.9109 65.6433 81.9109 67.0349V77.5343H72.8091C71.4175 77.5343 70.2896 78.6622 70.2896 80.0538C70.2896 81.4454 71.4175 82.5733 72.8091 82.5733H81.6412C80.5419 89.8573 76.115 96.3048 69.5376 99.9109Z" fill="#0E334E"/>
<path d="M20 1.5H195C205.217 1.5 213.5 9.78273 213.5 20V213.5H20C9.78273 213.5 1.5 205.217 1.5 195V20C1.5 9.78273 9.78273 1.5 20 1.5Z" stroke="#0E334E" stroke-width="3"/>
</svg>
