<svg width="80" height="80" viewBox="0 0 80 80" fill="none" xmlns="http://www.w3.org/2000/svg">
<path d="M0 4.98999H80V75.0101H0V4.98999Z" fill="#FFF6CC"/>
<path d="M73.5615 4.98999H80.0001V75.0101H73.5615V4.98999Z" fill="#FFF1B5"/>
<path d="M0 4.98999H80V14.1919H0V4.98999Z" fill="#7B7B7F"/>
<path d="M73.5615 4.98999H80.0001V14.1919H73.5615V4.98999Z" fill="#6B6B73"/>
<path d="M36.7015 22.6963H9.02115C8.35443 22.6963 7.81396 23.2368 7.81396 23.9035C7.81396 24.5702 8.35443 25.1107 9.02115 25.1107H36.7013C37.368 25.1107 37.9085 24.5702 37.9085 23.9035C37.9085 23.2368 37.3682 22.6963 36.7015 22.6963Z" fill="#D6CEBC"/>
<path d="M28.2835 28.3301H9.02115C8.35443 28.3301 7.81396 28.8705 7.81396 29.5373C7.81396 30.204 8.35443 30.7445 9.02115 30.7445H28.2835C28.9502 30.7445 29.4907 30.204 29.4907 29.5373C29.4907 28.8705 28.9502 28.3301 28.2835 28.3301Z" fill="#D6CEBC"/>
<path d="M0 48.7285H80V75.0099H0V48.7285Z" fill="#80E1FF"/>
<path d="M73.5615 48.7285H80.0001V75.0099H73.5615V48.7285Z" fill="#59D8FF"/>
<path d="M9.02173 36.2554H36.7019V67.0662H9.02173V36.2554Z" fill="#FF7DE9"/>
<path d="M30.2634 36.2554H36.702V67.0662H30.2634V36.2554Z" fill="#FF5EE4"/>
<path d="M43.2983 29.5371H70.9785V60.2435H43.2983V29.5371Z" fill="#FFDD00"/>
<path d="M70.9784 65.8589H54.4867C53.82 65.8589 53.2795 66.3994 53.2795 67.0661C53.2795 67.7328 53.82 68.2733 54.4867 68.2733H70.9783C71.645 68.2733 72.1855 67.7328 72.1855 67.0661C72.1856 66.3994 71.6452 65.8589 70.9784 65.8589Z" fill="white"/>
<path d="M70.9788 22.6963H65.6132C64.9465 22.6963 64.406 23.2368 64.406 23.9035C64.406 24.5702 64.9465 25.1107 65.6132 25.1107H70.9788C71.6455 25.1107 72.186 24.5702 72.186 23.9035C72.186 23.2368 71.6455 22.6963 70.9788 22.6963Z" fill="#FF7DE9"/>
<path d="M57.1383 54.1329C62.2427 54.1329 66.3807 49.995 66.3807 44.8905C66.3807 39.7861 62.2427 35.6482 57.1383 35.6482C52.0339 35.6482 47.896 39.7861 47.896 44.8905C47.896 49.995 52.0339 54.1329 57.1383 54.1329Z" fill="#FF7DE9"/>
<path d="M53.2526 40.8853C51.699 40.8853 51.6964 43.2998 53.2526 43.2998C54.8062 43.2998 54.8089 40.8853 53.2526 40.8853Z" fill="#E330C5"/>
<path d="M61.945 44.8557C60.3914 44.8557 60.3887 47.2702 61.945 47.2702C63.4986 47.2702 63.5013 44.8557 61.945 44.8557Z" fill="#E330C5"/>
<path d="M57.7595 48.2898C56.2059 48.2898 56.2032 50.7043 57.7595 50.7043C59.3131 50.7043 59.3157 48.2898 57.7595 48.2898Z" fill="#E330C5"/>
<path d="M22.7526 58.3937C26.2934 58.3937 29.1637 55.5234 29.1637 51.9826C29.1637 48.4419 26.2934 45.5715 22.7526 45.5715C19.2119 45.5715 16.3416 48.4419 16.3416 51.9826C16.3416 55.5234 19.2119 58.3937 22.7526 58.3937Z" fill="#FFDD00"/>
<path d="M12.9337 57.4018C12.454 57.4018 12.0003 57.1139 11.8119 56.6411C11.5651 56.0217 11.8672 55.3195 12.4865 55.0728L32.343 47.1612C32.9623 46.9145 33.6645 47.2165 33.9112 47.8359C34.158 48.4553 33.8559 49.1575 33.2365 49.4042L13.3801 57.3158C13.2337 57.3742 13.0825 57.4018 12.9337 57.4018Z" fill="white"/>
<path d="M5.54106 10.7981C7.14935 10.7981 7.152 8.38354 5.54106 8.38354C3.93263 8.38354 3.92997 10.7981 5.54106 10.7981Z" fill="white"/>
<path d="M9.86004 10.7981C11.4683 10.7981 11.471 8.38354 9.86004 8.38354C8.25176 8.38354 8.2491 10.7981 9.86004 10.7981Z" fill="white"/>
<path d="M14.1791 10.7981C15.7874 10.7981 15.7901 8.38354 14.1791 8.38354C12.5709 8.38354 12.5682 10.7981 14.1791 10.7981Z" fill="white"/>
</svg>
